.
 
http://www.scenetime.com    -  Hottest private tracker on the net. !!!

New release on http://www.scenetime.com

        Seed back for speed


...................................NFO:.................................................[img]http://img593.imageshack.us/img593/4271/candymanse.jpg[/img]

SAMURAi Presents to you:
Candyman.1992.BRRip.XviD.AC3-SAMURAi


Source: Bluray
Video: 720x384 @bitrate 1517KB @2pass
Audio: English DTS to AC3 5.1 @448
Sample: yes, included  
http://www.imdb.com/title/tt0103919/


General
Complete name                    : Candyman.1992.BRRip.XviD.AC3-SAMURAi.avi
Format                           : AVI
Format/Info                      : Audio Video Interleave
File size                        : 1.37 GiB
Duration                         : 1h 39mn
Overall bit rate                 : 1 975 Kbps
Writing application              : Nandub v1.0rc2
Writing library                  : Nandub build 1852/release

Video
ID                               : 0
Format                           : MPEG-4 Visual
Format profile                   : Advanced Simple@L5
Format settings, BVOP            : 2
Format settings, QPel            : No
Format settings, GMC             : No warppoints
Format settings, Matrix          : Default (H.263)
Muxing mode                      : Packed bitstream
Codec ID                         : XVID
Codec ID/Hint                    : XviD
Duration                         : 1h 39mn
Bit rate                         : 1 517 Kbps
Width                            : 720 pixels
Height                           : 384 pixels
Display aspect ratio             : 1.875
Frame rate                       : 23.976 fps
Color space                      : YUV
Chroma subsampling               : 4:2:0
Bit depth                        : 8 bits
Scan type                        : Progressive
Compression mode                 : Lossy
Bits/(Pixel*Frame)               : 0.229
Stream size                      : 1.05 GiB (77%)
Writing library                  : XviD 64

Audio
ID                               : 1
Format                           : AC-3
Format/Info                      : Audio Coding 3
Mode extension                   : CM (complete main)
Codec ID                         : 2000
Duration                         : 1h 39mn
Bit rate mode                    : Constant
Bit rate                         : 448 Kbps
Channel(s)                       : 2 channels
Channel positions                : Front: L R
Sampling rate                    : 48.0 KHz
Bit depth                        : 16 bits
Compression mode                 : Lossy
Stream size                      : 318 MiB (23%)
Alignment                        : Split accross interleaves
Interleave, duration             : 42 ms (1.00 video frame)
Interleave, preload duration     : 500 ms

Plot
Helen Lyle is a student who decides to write a thesis about local legends and myths. She visits a 
part of the town... 

Screenshots
[img]http://img13.imageshack.us/img13/6352/vlcsnap2011093005h28m58.png[/img]
[img]http://img204.imageshack.us/img204/8864/vlcsnap2011093005h29m24.png[/img]
[img]http://img31.imageshack.us/img31/8003/vlcsnap2011093005h30m17.png[/img]
[img]http://img221.imageshack.us/img221/3019/vlcsnap2011093005h30m58.png[/img]

Greetz:
Cm8, Santi, Rx, Noir, Ember, NPW, Unknown, VIP3R, SiC, Flojo, and other
p2p groups come and past!